<?xml version="1.0" encoding="UTF-8"?>
<svg id="Logo" xmlns="http://www.w3.org/2000/svg" viewBox="0 0 510.86 512">
  <defs>
    <style>
      .cls-1 {
        fill: #ebe6d8;
      }

      .cls-2 {
        fill: #414c35;
      }
    </style>
  </defs>
  <path id="Background" class="cls-1" d="M469.88,398.21c-7.91,8.18-22.84,12.55-31.21,20.63-13.73,13.26-14.2,37.31-33.55,44.56-10.61,3.98-24.14,3.86-34.47,8.63-14.47,6.68-22.91,27.28-40.94,29.09-14.47,1.45-28.66-4.56-43.05-2.65-11.3,1.51-23.96,11.76-35.24,13.23-21.18,2.77-31.19-14.5-48.72-17.04-13.7-1.98-31.49,2.94-43.44-1-14.56-4.79-22.78-23.96-35.62-31.72-9.96-6.02-22.5-6.79-33.02-11.42-19.35-8.52-17.62-30.04-29.09-44.98-8.56-11.16-25.93-16.92-33.14-28.81-9.03-14.9-1.87-33.03-7.76-48.8-4.05-10.84-18.46-24.13-20.18-35.03-2.8-17.66,8.34-29.74,9.39-45.65s-8.26-29.63-6.42-44.15c1.87-14.75,18.78-25.44,24.57-38.73,6.1-14,1.66-32.68,10.31-46.25,7.42-11.62,27.18-16.45,36.83-27.81,7.21-8.49,9.92-19.79,15.71-28.73,13.5-20.83,35.19-12.25,53.22-23.55,11.61-7.28,21-24.97,36.22-27.08,14.37-2,30.1,4.57,45.55,2.46,9.53-1.3,21.56-10.86,31.7-12.74,23.55-4.36,31.42,13.52,49.54,16.58,14.13,2.39,32.87-3.11,45.54,1.6,15.37,5.7,22.38,24.41,36.53,32.15,10.47,5.73,26.44,6.75,35.9,12.58,12.98,8,15.6,31.44,25.17,43.52,9.8,12.37,30.86,18.85,35.68,34.35,3.27,10.5.99,21.28,2.01,31.66,2.45,24.88,26.48,31.58,22.53,60.27-1.46,10.58-8.39,20.11-9.12,31.27-.99,15.23,8.33,29.77,6.42,44.15-2.07,15.64-18.88,26.15-24.55,40.09-6.07,14.91-1.66,37.31-13.29,49.33Z"/>
  <path id="Letter_2" data-name="Letter 2" class="cls-2" d="M289.91,278.85c-31.07.33-50.63,21.38-42.7,52.78,16.36,64.8,152.9,48.43,142-31.57-5.96-43.81-80.33-51.97-88.83-80.85-7.42-25.24,20.72-57.75,43.66-64.67,7.66-2.31,27.07-5.76,31.03,3.43,5.9,13.68-17.33,46.22-15.17,65.01.74,6.47,6.64,13.03,13.52,10.8,16.19-26.22,43.36-85.34-5.34-93.04-43.36-6.86-95.77,36.04-91.63,80.86,4.32,46.79,93.15,51.5,92.38,96.75s-91.65,52.73-96.42,5.6c-1.93-19.01,6.5-30.92,17.49-45.09Z"/>
  <path id="Letter_1" data-name="Letter 1" class="cls-2" d="M277.78,146.87c-25.93-3.53-53.87-7.51-80.1-5.37-16.55,1.35-32.78,6.37-37.06,24.21,20.62-1.93,41.05-7.75,61.92-4.72-9.83,43.44-17.97,87.37-29.99,130.27-3.56,12.72-7.23,26.9-12.08,39.1-4.56,11.48-11.26,29.18-26.67,26.01-15.41-3.18-14.53-23.94-13.23-36.27,1.25-11.87,7.52-22.86,9.13-34.38-21.78-10.76-30.38,13.23-33.17,30.54-3.78,23.46-.46,52.64,28.75,55.38,48.02,4.5,66.43-68.79,75.82-104.34,4.99-18.9,20.86-82.03,18.86-98.08-.4-3.21-2.48-5.7-2.59-8.87,13.41-.96,34.58,1.83,40.39-13.47Z"/>
</svg>